<mxfile host="app.diagrams.net" modified="2020-07-30T13:17:38.174Z" agent="5.0 (Windows NT 10.0; Win64; x64) AppleWebKit/537.36 (KHTML, like Gecko) Chrome/84.0.4147.89 Safari/537.36" etag="_YylLLJoO49ppiB48w72" version="13.5.6" type="github">
  <diagram id="lWUps5u48ZsNaHcpNWST" name="Page-1">
    <mxGraphModel dx="1730" dy="832" grid="1" gridSize="10" guides="1" tooltips="1" connect="1" arrows="1" fold="1" page="1" pageScale="1" pageWidth="850" pageHeight="1100" math="0" shadow="0">
      <root>
        <mxCell id="0" />
        <mxCell id="1" parent="0" />
        <mxCell id="glS8m86E-uvUrb20jaXg-9" value="" style="ellipse;shape=cloud;whiteSpace=wrap;html=1;fillColor=#f8cecc;strokeColor=#b85450;" vertex="1" parent="1">
          <mxGeometry x="160" y="450" width="270" height="150" as="geometry" />
        </mxCell>
        <mxCell id="glS8m86E-uvUrb20jaXg-8" value="" style="ellipse;shape=cloud;whiteSpace=wrap;html=1;fillColor=#d5e8d4;strokeColor=#82b366;" vertex="1" parent="1">
          <mxGeometry x="160" y="300" width="270" height="150" as="geometry" />
        </mxCell>
        <mxCell id="glS8m86E-uvUrb20jaXg-7" value="" style="ellipse;shape=cloud;whiteSpace=wrap;html=1;fillColor=#fff2cc;strokeColor=#d6b656;" vertex="1" parent="1">
          <mxGeometry x="160" y="150" width="270" height="150" as="geometry" />
        </mxCell>
        <mxCell id="glS8m86E-uvUrb20jaXg-1" value="" style="shape=mxgraph.cisco.routers.atm_router;html=1;dashed=0;fillColor=#036897;strokeColor=#ffffff;strokeWidth=2;verticalLabelPosition=bottom;verticalAlign=top" vertex="1" parent="1">
          <mxGeometry x="600" y="300" width="240" height="160" as="geometry" />
        </mxCell>
        <mxCell id="glS8m86E-uvUrb20jaXg-4" value="" style="shape=mxgraph.cisco.routers.router;html=1;dashed=0;fillColor=#036897;strokeColor=#ffffff;strokeWidth=2;verticalLabelPosition=bottom;verticalAlign=top" vertex="1" parent="1">
          <mxGeometry x="290" y="485" width="118" height="90" as="geometry" />
        </mxCell>
        <mxCell id="glS8m86E-uvUrb20jaXg-5" value="" style="shape=mxgraph.cisco.routers.router;html=1;dashed=0;fillColor=#036897;strokeColor=#ffffff;strokeWidth=2;verticalLabelPosition=bottom;verticalAlign=top" vertex="1" parent="1">
          <mxGeometry x="290" y="335" width="118" height="90" as="geometry" />
        </mxCell>
        <mxCell id="glS8m86E-uvUrb20jaXg-6" value="" style="shape=mxgraph.cisco.routers.router;html=1;dashed=0;fillColor=#036897;strokeColor=#ffffff;strokeWidth=2;verticalLabelPosition=bottom;verticalAlign=top" vertex="1" parent="1">
          <mxGeometry x="290" y="185" width="118" height="90" as="geometry" />
        </mxCell>
        <mxCell id="glS8m86E-uvUrb20jaXg-11" value="" style="endArrow=none;html=1;exitX=1;exitY=0.5;exitDx=0;exitDy=0;exitPerimeter=0;entryX=-0.001;entryY=0.286;entryDx=0;entryDy=0;entryPerimeter=0;" edge="1" parent="1" source="glS8m86E-uvUrb20jaXg-192" target="glS8m86E-uvUrb20jaXg-1">
          <mxGeometry width="50" height="50" relative="1" as="geometry">
            <mxPoint x="520" y="305" as="sourcePoint" />
            <mxPoint x="570" y="255" as="targetPoint" />
          </mxGeometry>
        </mxCell>
        <mxCell id="glS8m86E-uvUrb20jaXg-12" value="" style="endArrow=none;html=1;exitX=1;exitY=0.5;exitDx=0;exitDy=0;exitPerimeter=0;entryX=0;entryY=0.5;entryDx=0;entryDy=0;entryPerimeter=0;" edge="1" parent="1" source="glS8m86E-uvUrb20jaXg-5" target="glS8m86E-uvUrb20jaXg-1">
          <mxGeometry width="50" height="50" relative="1" as="geometry">
            <mxPoint x="480" y="425" as="sourcePoint" />
            <mxPoint x="530" y="375" as="targetPoint" />
          </mxGeometry>
        </mxCell>
        <mxCell id="glS8m86E-uvUrb20jaXg-13" value="" style="endArrow=none;html=1;exitX=1;exitY=0.5;exitDx=0;exitDy=0;exitPerimeter=0;entryX=-0.007;entryY=0.7;entryDx=0;entryDy=0;entryPerimeter=0;" edge="1" parent="1" source="glS8m86E-uvUrb20jaXg-4" target="glS8m86E-uvUrb20jaXg-1">
          <mxGeometry width="50" height="50" relative="1" as="geometry">
            <mxPoint x="520" y="505" as="sourcePoint" />
            <mxPoint x="570" y="455" as="targetPoint" />
          </mxGeometry>
        </mxCell>
        <mxCell id="glS8m86E-uvUrb20jaXg-186" style="edgeStyle=orthogonalEdgeStyle;rounded=0;orthogonalLoop=1;jettySize=auto;html=1;exitX=0;exitY=0.5;exitDx=0;exitDy=0;endArrow=none;endFill=0;" edge="1" parent="1" source="glS8m86E-uvUrb20jaXg-180">
          <mxGeometry relative="1" as="geometry">
            <mxPoint x="730" y="225" as="targetPoint" />
            <Array as="points">
              <mxPoint x="820" y="225" />
            </Array>
          </mxGeometry>
        </mxCell>
        <mxCell id="glS8m86E-uvUrb20jaXg-180" value="" style="rounded=0;whiteSpace=wrap;html=1;fillColor=#fff2cc;strokeColor=#d6b656;" vertex="1" parent="1">
          <mxGeometry x="950" y="195" width="120" height="60" as="geometry" />
        </mxCell>
        <mxCell id="glS8m86E-uvUrb20jaXg-181" value="" style="rounded=0;whiteSpace=wrap;html=1;" vertex="1" parent="1">
          <mxGeometry x="970" y="215" width="120" height="60" as="geometry" />
        </mxCell>
        <mxCell id="glS8m86E-uvUrb20jaXg-187" style="edgeStyle=orthogonalEdgeStyle;rounded=0;orthogonalLoop=1;jettySize=auto;html=1;exitX=0;exitY=0.5;exitDx=0;exitDy=0;endArrow=none;endFill=0;" edge="1" parent="1" source="glS8m86E-uvUrb20jaXg-182">
          <mxGeometry relative="1" as="geometry">
            <mxPoint x="730" y="245" as="targetPoint" />
            <Array as="points">
              <mxPoint x="830" y="245" />
            </Array>
          </mxGeometry>
        </mxCell>
        <mxCell id="glS8m86E-uvUrb20jaXg-182" value="" style="rounded=0;whiteSpace=wrap;html=1;fillColor=#d5e8d4;strokeColor=#82b366;" vertex="1" parent="1">
          <mxGeometry x="970" y="215" width="120" height="60" as="geometry" />
        </mxCell>
        <mxCell id="glS8m86E-uvUrb20jaXg-188" style="edgeStyle=orthogonalEdgeStyle;rounded=0;orthogonalLoop=1;jettySize=auto;html=1;exitX=0;exitY=0.5;exitDx=0;exitDy=0;endArrow=none;endFill=0;" edge="1" parent="1" source="glS8m86E-uvUrb20jaXg-183">
          <mxGeometry relative="1" as="geometry">
            <mxPoint x="730" y="265" as="targetPoint" />
            <Array as="points">
              <mxPoint x="840" y="265" />
            </Array>
          </mxGeometry>
        </mxCell>
        <mxCell id="glS8m86E-uvUrb20jaXg-183" value="" style="rounded=0;whiteSpace=wrap;html=1;fillColor=#f8cecc;strokeColor=#b85450;" vertex="1" parent="1">
          <mxGeometry x="990" y="235" width="120" height="60" as="geometry" />
        </mxCell>
        <mxCell id="glS8m86E-uvUrb20jaXg-189" value="" style="endArrow=none;html=1;exitX=1;exitY=0;exitDx=0;exitDy=0;" edge="1" parent="1" source="glS8m86E-uvUrb20jaXg-196">
          <mxGeometry width="50" height="50" relative="1" as="geometry">
            <mxPoint x="555" y="285" as="sourcePoint" />
            <mxPoint x="730" y="265" as="targetPoint" />
          </mxGeometry>
        </mxCell>
        <mxCell id="glS8m86E-uvUrb20jaXg-190" value="" style="endArrow=none;html=1;exitX=0;exitY=0.5;exitDx=0;exitDy=0;exitPerimeter=0;" edge="1" parent="1" source="glS8m86E-uvUrb20jaXg-1">
          <mxGeometry width="50" height="50" relative="1" as="geometry">
            <mxPoint x="550" y="303.5" as="sourcePoint" />
            <mxPoint x="730" y="245" as="targetPoint" />
          </mxGeometry>
        </mxCell>
        <mxCell id="glS8m86E-uvUrb20jaXg-191" value="" style="endArrow=none;html=1;exitX=0.003;exitY=0.284;exitDx=0;exitDy=0;exitPerimeter=0;" edge="1" parent="1" source="glS8m86E-uvUrb20jaXg-1">
          <mxGeometry width="50" height="50" relative="1" as="geometry">
            <mxPoint x="598" y="343" as="sourcePoint" />
            <mxPoint x="730" y="225" as="targetPoint" />
          </mxGeometry>
        </mxCell>
        <mxCell id="glS8m86E-uvUrb20jaXg-192" value="" style="ellipse;whiteSpace=wrap;html=1;aspect=fixed;fillColor=#fff2cc;strokeColor=#d6b656;" vertex="1" parent="1">
          <mxGeometry x="590" y="335" width="16" height="16" as="geometry" />
        </mxCell>
        <mxCell id="glS8m86E-uvUrb20jaXg-193" value="" style="endArrow=none;html=1;exitX=1;exitY=0.5;exitDx=0;exitDy=0;exitPerimeter=0;entryX=-0.001;entryY=0.286;entryDx=0;entryDy=0;entryPerimeter=0;" edge="1" parent="1" source="glS8m86E-uvUrb20jaXg-6" target="glS8m86E-uvUrb20jaXg-192">
          <mxGeometry width="50" height="50" relative="1" as="geometry">
            <mxPoint x="408" y="230" as="sourcePoint" />
            <mxPoint x="599.76" y="345.76" as="targetPoint" />
          </mxGeometry>
        </mxCell>
        <mxCell id="glS8m86E-uvUrb20jaXg-196" value="" style="ellipse;whiteSpace=wrap;html=1;aspect=fixed;fillColor=#f8cecc;strokeColor=#b85450;" vertex="1" parent="1">
          <mxGeometry x="592" y="403" width="15" height="15" as="geometry" />
        </mxCell>
        <mxCell id="glS8m86E-uvUrb20jaXg-198" value="" style="ellipse;whiteSpace=wrap;html=1;aspect=fixed;fillColor=#d5e8d4;strokeColor=#82b366;" vertex="1" parent="1">
          <mxGeometry x="592" y="371" width="16" height="16" as="geometry" />
        </mxCell>
        <mxCell id="glS8m86E-uvUrb20jaXg-202" value="&lt;font style=&quot;font-size: 39px&quot;&gt;&lt;b&gt;PE&lt;/b&gt;&lt;/font&gt;" style="text;html=1;strokeColor=none;fillColor=none;align=center;verticalAlign=middle;whiteSpace=wrap;rounded=0;" vertex="1" parent="1">
          <mxGeometry x="700" y="480" width="40" height="20" as="geometry" />
        </mxCell>
        <mxCell id="glS8m86E-uvUrb20jaXg-204" value="&lt;b&gt;&lt;font style=&quot;font-size: 19px&quot;&gt;VPN_1&lt;/font&gt;&lt;/b&gt;" style="text;html=1;strokeColor=none;fillColor=none;align=center;verticalAlign=middle;whiteSpace=wrap;rounded=0;" vertex="1" parent="1">
          <mxGeometry x="220" y="215" width="40" height="20" as="geometry" />
        </mxCell>
        <mxCell id="glS8m86E-uvUrb20jaXg-205" value="&lt;b&gt;&lt;font style=&quot;font-size: 19px&quot;&gt;VPN_2&lt;/font&gt;&lt;/b&gt;" style="text;html=1;strokeColor=none;fillColor=none;align=center;verticalAlign=middle;whiteSpace=wrap;rounded=0;" vertex="1" parent="1">
          <mxGeometry x="220" y="369" width="40" height="20" as="geometry" />
        </mxCell>
        <mxCell id="glS8m86E-uvUrb20jaXg-206" value="&lt;b&gt;&lt;font style=&quot;font-size: 19px&quot;&gt;VPN_3&lt;/font&gt;&lt;/b&gt;" style="text;html=1;strokeColor=none;fillColor=none;align=center;verticalAlign=middle;whiteSpace=wrap;rounded=0;" vertex="1" parent="1">
          <mxGeometry x="220" y="515" width="40" height="20" as="geometry" />
        </mxCell>
        <mxCell id="glS8m86E-uvUrb20jaXg-207" value="&lt;b&gt;&lt;font style=&quot;font-size: 19px&quot;&gt;VRFs&lt;/font&gt;&lt;/b&gt;" style="text;html=1;strokeColor=none;fillColor=none;align=center;verticalAlign=middle;whiteSpace=wrap;rounded=0;" vertex="1" parent="1">
          <mxGeometry x="990" y="165" width="40" height="20" as="geometry" />
        </mxCell>
      </root>
    </mxGraphModel>
  </diagram>
</mxfile>
